<svg viewBox="0 0 1120 700" role="img" aria-label="4P battery to bus bar wiring schematic">
<defs><marker id="ar4" markerWidth="11" markerHeight="10" refX="7" refY="4" orient="auto" markerUnits="userSpaceOnUse"><path d="M0,0 L8,4 L0,8 Z" fill="context-stroke"/></marker></defs>
<rect x="116" y="108" width="418" height="436" fill="var(--pos)" opacity=".035" rx="10"/>
<rect x="586" y="108" width="418" height="436" fill="var(--pos)" opacity=".035" rx="10"/>
<text x="325.0" y="100" class="plan-lbl soft" font-size="11" text-anchor="middle">BAR PAIR L &#183; packs B1 B2</text>
<text x="795.0" y="100" class="plan-lbl soft" font-size="11" text-anchor="middle">BAR PAIR R &#183; packs B3 B4</text>
<rect x="130" y="140" width="390" height="24" rx="4" fill="var(--pos-soft)" stroke="var(--pos)" stroke-width="2"/>
<rect x="130" y="520" width="390" height="24" rx="4" fill="var(--neg-soft)" stroke="var(--neg)" stroke-width="2"/>
<rect x="600" y="140" width="390" height="24" rx="4" fill="var(--pos-soft)" stroke="var(--pos)" stroke-width="2"/>
<rect x="600" y="520" width="390" height="24" rx="4" fill="var(--neg-soft)" stroke="var(--neg)" stroke-width="2"/>
<text x="110" y="157" class="plan-lbl pos tag" font-size="12.5" text-anchor="end">+ BUS</text>
<text x="110" y="537" class="plan-lbl neg tag" font-size="12.5" text-anchor="end">&#8722; BUS</text>
<path d="M485,152 L635,152" stroke="var(--pos)" stroke-width="5" fill="none" stroke-linecap="round"/>
<path d="M485,532 L635,532" stroke="var(--neg)" stroke-width="5" fill="none" stroke-linecap="round"/>
<text x="560.0" y="128" class="plan-lbl soft" font-size="10.5" text-anchor="middle">2/0 CHAIN JUMPER</text>
<text x="560.0" y="508" class="plan-lbl soft" font-size="10.5" text-anchor="middle">2/0 CHAIN JUMPER</text>
<circle cx="175" cy="152" r="6.5" fill="var(--pos)" stroke="var(--halo)" stroke-width="1.6"/>
<circle cx="175" cy="532" r="6.5" fill="var(--neg)" stroke="var(--halo)" stroke-width="1.6"/>
<text x="175" y="116" class="plan-lbl tag" font-size="11" text-anchor="middle">L1</text>
<text x="175" y="560" class="plan-lbl tag" font-size="11" text-anchor="middle">L1</text>
<circle cx="285" cy="152" r="6.5" fill="var(--pos)" stroke="var(--halo)" stroke-width="1.6"/>
<circle cx="285" cy="532" r="6.5" fill="var(--neg)" stroke="var(--halo)" stroke-width="1.6"/>
<text x="285" y="116" class="plan-lbl tag" font-size="11" text-anchor="middle">L2</text>
<text x="285" y="560" class="plan-lbl tag" font-size="11" text-anchor="middle">L2</text>
<circle cx="395" cy="152" r="6.5" fill="var(--pos)" stroke="var(--halo)" stroke-width="1.6"/>
<circle cx="395" cy="532" r="6.5" fill="var(--neg)" stroke="var(--halo)" stroke-width="1.6"/>
<text x="395" y="116" class="plan-lbl tag" font-size="11" text-anchor="middle">L3</text>
<text x="395" y="560" class="plan-lbl tag" font-size="11" text-anchor="middle">L3</text>
<circle cx="485" cy="152" r="6.5" fill="var(--pos)" stroke="var(--halo)" stroke-width="1.6"/>
<circle cx="485" cy="532" r="6.5" fill="var(--neg)" stroke="var(--halo)" stroke-width="1.6"/>
<text x="485" y="116" class="plan-lbl tag" font-size="11" text-anchor="middle">L4</text>
<text x="485" y="560" class="plan-lbl tag" font-size="11" text-anchor="middle">L4</text>
<circle cx="635" cy="152" r="6.5" fill="var(--pos)" stroke="var(--halo)" stroke-width="1.6"/>
<circle cx="635" cy="532" r="6.5" fill="var(--neg)" stroke="var(--halo)" stroke-width="1.6"/>
<text x="635" y="116" class="plan-lbl tag" font-size="11" text-anchor="middle">R1</text>
<text x="635" y="560" class="plan-lbl tag" font-size="11" text-anchor="middle">R1</text>
<circle cx="725" cy="152" r="6.5" fill="var(--pos)" stroke="var(--halo)" stroke-width="1.6"/>
<circle cx="725" cy="532" r="6.5" fill="var(--neg)" stroke="var(--halo)" stroke-width="1.6"/>
<text x="725" y="116" class="plan-lbl tag" font-size="11" text-anchor="middle">R2</text>
<text x="725" y="560" class="plan-lbl tag" font-size="11" text-anchor="middle">R2</text>
<circle cx="835" cy="152" r="6.5" fill="var(--pos)" stroke="var(--halo)" stroke-width="1.6"/>
<circle cx="835" cy="532" r="6.5" fill="var(--neg)" stroke="var(--halo)" stroke-width="1.6"/>
<text x="835" y="116" class="plan-lbl tag" font-size="11" text-anchor="middle">R3</text>
<text x="835" y="560" class="plan-lbl tag" font-size="11" text-anchor="middle">R3</text>
<circle cx="945" cy="152" r="6.5" fill="var(--pos)" stroke="var(--halo)" stroke-width="1.6"/>
<circle cx="945" cy="532" r="6.5" fill="var(--neg)" stroke="var(--halo)" stroke-width="1.6"/>
<text x="945" y="116" class="plan-lbl tag" font-size="11" text-anchor="middle">R4</text>
<text x="945" y="560" class="plan-lbl tag" font-size="11" text-anchor="middle">R4</text>
<rect x="233.0" y="300" width="104" height="110" rx="7" fill="var(--board)" stroke="var(--board-stroke)" stroke-width="2"/>
<text x="285" y="344" class="plan-lbl tag" font-size="17" text-anchor="middle">B1</text>
<text x="285" y="366" class="plan-lbl soft" font-size="10" text-anchor="middle">24V 100Ah</text>
<text x="285" y="382" class="plan-lbl soft" font-size="9.5" text-anchor="middle">45.85 lb</text>
<path d="M285,300 L285,248" stroke="var(--pos)" stroke-width="3.2" fill="none"/>
<rect x="260" y="222" width="50" height="26" rx="4" fill="var(--fuse-fill)" stroke="var(--fuse)" stroke-width="2"/>
<text x="285" y="239" class="plan-lbl tag" font-size="10.5" text-anchor="middle">150A</text>
<path d="M285,222 L285,164" stroke="var(--pos)" stroke-width="3.2" fill="none"/>
<path d="M222,252 L271,252" stroke="var(--flag)" stroke-width="1.2" stroke-dasharray="3 3" fill="none"/>
<text x="172" y="274" class="plan-lbl flag" font-size="10" text-anchor="middle">this stub is LIVE</text>
<text x="172" y="286" class="plan-lbl flag" font-size="10" text-anchor="middle">and UNFUSED</text>
<text x="172" y="298" class="plan-lbl flag" font-size="10" text-anchor="middle">keep it under 7 in</text>
<path d="M285,410 L285,520" stroke="var(--neg)" stroke-width="3.2" fill="none"/>
<rect x="343.0" y="300" width="104" height="110" rx="7" fill="var(--board)" stroke="var(--board-stroke)" stroke-width="2"/>
<text x="395" y="344" class="plan-lbl tag" font-size="17" text-anchor="middle">B2</text>
<text x="395" y="366" class="plan-lbl soft" font-size="10" text-anchor="middle">24V 100Ah</text>
<text x="395" y="382" class="plan-lbl soft" font-size="9.5" text-anchor="middle">45.85 lb</text>
<path d="M395,300 L395,248" stroke="var(--pos)" stroke-width="3.2" fill="none"/>
<rect x="370" y="222" width="50" height="26" rx="4" fill="var(--fuse-fill)" stroke="var(--fuse)" stroke-width="2"/>
<text x="395" y="239" class="plan-lbl tag" font-size="10.5" text-anchor="middle">150A</text>
<path d="M395,222 L395,164" stroke="var(--pos)" stroke-width="3.2" fill="none"/>
<path d="M395,410 L395,520" stroke="var(--neg)" stroke-width="3.2" fill="none"/>
<rect x="673.0" y="300" width="104" height="110" rx="7" fill="var(--board)" stroke="var(--board-stroke)" stroke-width="2"/>
<text x="725" y="344" class="plan-lbl tag" font-size="17" text-anchor="middle">B3</text>
<text x="725" y="366" class="plan-lbl soft" font-size="10" text-anchor="middle">24V 100Ah</text>
<text x="725" y="382" class="plan-lbl soft" font-size="9.5" text-anchor="middle">45.85 lb</text>
<path d="M725,300 L725,248" stroke="var(--pos)" stroke-width="3.2" fill="none"/>
<rect x="700" y="222" width="50" height="26" rx="4" fill="var(--fuse-fill)" stroke="var(--fuse)" stroke-width="2"/>
<text x="725" y="239" class="plan-lbl tag" font-size="10.5" text-anchor="middle">150A</text>
<path d="M725,222 L725,164" stroke="var(--pos)" stroke-width="3.2" fill="none"/>
<path d="M725,410 L725,520" stroke="var(--neg)" stroke-width="3.2" fill="none"/>
<rect x="783.0" y="300" width="104" height="110" rx="7" fill="var(--board)" stroke="var(--board-stroke)" stroke-width="2"/>
<text x="835" y="344" class="plan-lbl tag" font-size="17" text-anchor="middle">B4</text>
<text x="835" y="366" class="plan-lbl soft" font-size="10" text-anchor="middle">24V 100Ah</text>
<text x="835" y="382" class="plan-lbl soft" font-size="9.5" text-anchor="middle">45.85 lb</text>
<path d="M835,300 L835,248" stroke="var(--pos)" stroke-width="3.2" fill="none"/>
<rect x="810" y="222" width="50" height="26" rx="4" fill="var(--fuse-fill)" stroke="var(--fuse)" stroke-width="2"/>
<text x="835" y="239" class="plan-lbl tag" font-size="10.5" text-anchor="middle">150A</text>
<path d="M835,222 L835,164" stroke="var(--pos)" stroke-width="3.2" fill="none"/>
<path d="M835,410 L835,520" stroke="var(--neg)" stroke-width="3.2" fill="none"/>
<rect x="14" y="176" width="104" height="118" rx="7" fill="var(--paper)" stroke="var(--ink)" stroke-width="2"/>
<text x="66.0" y="210" class="plan-lbl tag" font-size="12" text-anchor="middle">INVERTER</text>
<text x="66.0" y="230" class="plan-lbl soft" font-size="10.5" text-anchor="middle">3000W</text>
<text x="66.0" y="246" class="plan-lbl soft" font-size="10.5" text-anchor="middle">24V</text>
<path d="M118,206 L175,206 L175,164" stroke="var(--pos)" stroke-width="4" fill="none"/>
<rect x="113" y="193" width="52" height="26" rx="4" fill="var(--paper)" stroke="var(--pos)" stroke-width="2"/>
<text x="139" y="210" class="plan-lbl tag" font-size="10.5" text-anchor="middle">80A</text>
<path d="M66.0,294 L66.0,638 L945,638 L945,544" stroke="var(--neg)" stroke-width="4" fill="none"/>
<text x="505.5" y="656" class="plan-lbl soft" font-size="10.5" text-anchor="middle">INVERTER &#8722; runs to the FAR stud. This diagonal is what makes the four packs share evenly.</text>
<rect x="1002" y="176" width="104" height="118" rx="7" fill="var(--paper)" stroke="var(--ink)" stroke-width="2"/>
<text x="1054.0" y="206" class="plan-lbl tag" font-size="12" text-anchor="middle">CHARGERS</text>
<text x="1054.0" y="224" class="plan-lbl soft" font-size="10" text-anchor="middle">Tycon 70A</text>
<text x="1054.0" y="238" class="plan-lbl soft" font-size="10" text-anchor="middle">Iota 30A</text>
<text x="1054.0" y="252" class="plan-lbl soft" font-size="10" text-anchor="middle">DIN 10A</text>
<path d="M1002,206 L945,206 L945,164" stroke="var(--pos)" stroke-width="3.2" fill="none"/>
<path d="M1054.0,294 L1054.0,596 L175,596 L175,544" stroke="var(--neg)" stroke-width="3.2" fill="none"/>
<text x="614.5" y="587" class="plan-lbl soft" font-size="10.5" text-anchor="middle">CHARGER RETURN, diagonally opposite the inverter</text>
<text x="560.0" y="42" class="plan-lbl tag" font-size="13" text-anchor="middle">4P BUS: 8 STUDS PER POLARITY, 2 SPENT ON THE LINK, 6 LANDINGS USED</text>
<text x="560.0" y="62" class="plan-lbl soft" font-size="11" text-anchor="middle">4 packs  +  inverter  +  charger group  =  exactly 6. There is no spare stud.</text>
<rect x="130" y="658" width="860" height="0" fill="none"/>
<text x="130" y="686" class="plan-lbl soft" font-size="10.5" text-anchor="start">Red = positive   &#183;   Black = negative   &#183;   Every pack positive passes its OWN 150A ANL   &#183;   Negatives land straight on the bus   &#183;   Schematic, not to scale</text>
</svg>
